<?xml version="1.0" encoding="utf-8"?>
<!-- Generator: Adobe Illustrator 19.2.0, SVG Export Plug-In . SVG Version: 6.00 Build 0)  -->
<svg version="1.1" baseProfile="tiny" id="Layer_1" xmlns="http://www.w3.org/2000/svg" xmlns:xlink="http://www.w3.org/1999/xlink"
	 x="0px" y="0px" width="145.956px" height="43.759px" viewBox="0 0 145.956 43.759" xml:space="preserve">
<polygon fill="#F48F00" points="45.778,9.737 53.169,9.737 58.78,24.88 58.871,24.88 64.072,9.737 70.96,9.737 62.201,31.996 
	54.947,31.996 "/>
<path fill="#007FAF" d="M18.974,15.211h-6.75v7.451c0,1.263,0.112,2.877,1.303,3.605c1.136,0.694,2.684,0.533,3.944,0.386
	c0.653-0.076,1.139-0.252,1.504-0.524v5.701c-0.912,0.273-1.727,0.456-2.631,0.548c-4.831,0.488-11.6-0.343-11.6-6.569V15.211H0
	V9.737h4.744V3.169h7.48v6.568h6.75V15.211z"/>
<path fill="#007FAF" d="M38.131,9.737h6.75v22.258h-6.75V9.737z M37.855,3.882c0-1.987,1.648-3.636,3.634-3.636
	c1.987,0,3.636,1.648,3.636,3.636c0,1.988-1.65,3.636-3.636,3.636C39.504,7.518,37.855,5.869,37.855,3.882"/>
<path fill="#C94A38" d="M122.404,20.882c0,3.01,1.749,5.61,4.954,5.61c3.204,0,4.953-2.601,4.953-5.61
	c0-3.008-1.749-5.612-4.953-5.612C124.153,15.27,122.404,17.873,122.404,20.882 M116.214,20.882c0-4.742,2.514-9.228,7.083-10.925
	c4.516-1.678,9.977-0.362,12.898,3.551c2.773,3.714,3.069,9.185,0.932,13.264c-2.28,4.353-7.249,6.438-12.013,5.537
	C119.589,31.264,116.214,26.337,116.214,20.882"/>
<path fill="#CDD0D2" d="M141.85,15.984c-1.64,0-2.967-1.328-2.967-2.967c0-1.639,1.327-2.968,2.967-2.968
	c1.638,0,2.967,1.328,2.967,2.968C144.817,14.656,143.488,15.984,141.85,15.984 M141.85,9.368c-2.016,0-3.648,1.634-3.648,3.649
	c0,2.015,1.632,3.648,3.648,3.648c2.014,0,3.649-1.632,3.649-3.648C145.5,11.002,143.864,9.368,141.85,9.368 M142.331,12.288
	c0-0.393-0.354-0.43-0.657-0.43h-0.296v0.947h0.253C141.979,12.806,142.331,12.706,142.331,12.288 M143.754,14.729h-1.078
	l-0.982-1.29h-0.317v1.29h-0.879V11.21h1.417c0.195,0,0.365,0.014,0.509,0.038c0.724,0.122,1.066,0.984,0.632,1.586
	c-0.122,0.167-0.284,0.3-0.486,0.401L143.754,14.729z"/>
<path fill="#C94A38" d="M108.979,9.716v2.982h-0.103c-0.12-0.163-0.287-0.412-0.777-0.832c-4.421-3.797-11.969-3.039-14.826,2.282
	c-1.471,2.74-1.667,6.221-1.255,9.251c0.384,2.822,1.427,5.808,3.91,7.441c2.754,1.812,6.365,2.142,9.42,0.965
	c1.428-0.55,2.426-1.579,2.819-2.135h0.079v2.157c0,1.587-0.346,2.89-1.336,3.912c-1.968,2.028-5.73,1.897-8.255,1.214
	c-1.241-0.335-2.801-0.926-3.959-1.774l-3.329,4.886c1.774,1.285,3.379,2.076,5.304,2.586c4.866,1.288,11.603,1.259,15.363-2.609
	c2.12-2.181,2.985-5.378,2.985-9.59V9.716H108.979z M107.272,24.971c-1.772,2.115-5.554,2.102-7.33,0
	c-1.803-2.134-1.803-6.012,0-8.147c1.781-2.108,5.549-2.108,7.33,0C109.081,18.966,109.071,22.829,107.272,24.971
	C106.403,26.009,108.143,23.934,107.272,24.971z"/>
<path fill="#007FAF" d="M20.799,9.737h6.933v3.649H27.8c0.73-1.46,1.597-2.411,2.6-3.094c2.266-1.545,5.634-0.945,6.089-0.815v6.251
	c-1.397-0.378-4.347-0.971-6.406,0.286c-1.303,0.796-2.351,1.75-2.351,6.694v9.288h-6.933V9.737z"/>
<path fill="#F48F00" d="M77.405,23.122c-1.352,0.842-2.285,2.484-1.036,3.769c1.218,1.253,3.425,1.127,4.933,0.6
	c1.692-0.592,2.988-1.911,2.988-3.781l0-1.384C84.312,22.323,79.135,22.044,77.405,23.122z M84.289,29.259h-0.124
	c-0.76,1.095-1.772,2-3.032,2.516c-4.84,1.988-11.881-0.026-11.885-6.102c-0.003-6.322,6.887-7.613,11.93-7.758
	c1.109-0.029,2.135-0.046,3.078-0.046c0-1.215-0.432-2.182-1.3-2.896c-1.711-1.411-4.25-1.333-6.158-0.365
	c-0.928,0.472-1.756,1.119-2.486,1.939l-3.65-3.741c1.277-1.186,2.768-2.076,4.471-2.668C78.11,9.1,81.65,8.865,84.699,9.772
	c2.905,0.864,4.739,3.097,5.367,6.024c0.303,1.415,0.427,3.049,0.427,4.904v11.296h-6.203V29.259z"/>
<rect x="0" y="-0.028" fill="none" width="145.956" height="43.787"/>
</svg>
